<?xml version="1.0" standalone="no"?>
<!DOCTYPE svg PUBLIC "-//W3C//DTD SVG 20010904//EN"
 "http://www.w3.org/TR/2001/REC-SVG-20010904/DTD/svg10.dtd">
<svg version="1.0" xmlns="http://www.w3.org/2000/svg"
 width="512.000000pt" height="512.000000pt" viewBox="0 0 512.000000 512.000000"
 preserveAspectRatio="xMidYMid meet">

<g transform="translate(0.000000,512.000000) scale(0.100000,-0.100000)"
fill="#000000" stroke="none">
<path d="M2315 5109 c-634 -65 -1201 -348 -1636 -814 -359 -385 -582 -864
-661 -1420 -17 -118 -17 -512 0 -630 86 -603 334 -1102 753 -1512 403 -396
890 -632 1474 -715 119 -17 512 -16 635 1 586 81 1091 331 1497 742 404 409
641 894 725 1484 17 118 17 512 0 630 -48 337 -146 641 -295 910 -117 213
-253 395 -430 574 -398 403 -893 653 -1462 737 -123 18 -478 26 -600 13z
m-636 -957 c64 -39 94 -98 89 -179 -6 -100 -72 -173 -170 -189 -79 -13 -173
41 -209 121 -50 109 12 240 128 271 61 16 106 9 162 -24z m51 -1682 l0 -1070
-155 0 -155 0 0 1070 0 1070 155 0 155 0 0 -1070z m1562 1041 c237 -52 396
-135 546 -283 134 -132 226 -295 280 -497 22 -85 25 -116 25 -261 0 -147 -3
-176 -26 -265 -103 -384 -396 -672 -782 -770 -141 -36 -288 -45 -742 -45
l-413 0 0 1076 0 1076 508 -5 c475 -4 513 -5 604 -26z"/>
<path d="M2490 2464 l0 -796 328 4 c313 5 331 6 425 31 303 80 498 281 568
583 28 124 24 320 -11 429 -40 127 -97 222 -185 311 -70 70 -97 89 -186 132
-180 87 -275 102 -656 102 l-283 0 0 -796z"/>
</g>
</svg>
