<svg width="60" height="47" viewBox="0 0 60 47" fill="none" xmlns="http://www.w3.org/2000/svg">
    <path d="M30.0191 45.5008L30.0095 45.5005H30C13.7076 45.5005 0.5 32.2929 0.5 16.0005C0.5 13.9369 0.566957 12.3425 0.710473 11.1292C0.855196 9.90571 1.07293 9.11819 1.34348 8.63459C1.59599 8.18325 1.87734 8.02037 2.2128 7.98247C2.60101 7.93861 3.12666 8.05539 3.85442 8.34564C4.49809 8.60235 5.25293 8.97762 6.12443 9.41091C9.11056 10.8955 13.4664 13.0611 19.4132 13.4712C23.3443 13.7423 27.5231 12.1963 31.5945 10.1478C33.6372 9.12003 35.6719 7.95548 37.6515 6.811C37.8355 6.70463 38.019 6.59844 38.202 6.49255C39.9921 5.45662 41.7321 4.44971 43.4044 3.57711C45.2481 2.61503 46.9888 1.82738 48.5973 1.3503C50.2074 0.872731 51.651 0.716822 52.9149 0.981563C55.3711 1.49604 57.4108 3.67399 58.5741 9.1027C63.2049 30.713 46.2361 46.1201 30.0191 45.5008Z"
          fill="#FFB902" stroke="#FFB902"/>
</svg>
