<svg width="42" height="38" viewBox="0 0 42 38" fill="none" xmlns="http://www.w3.org/2000/svg">
    <path d="M24.748 27.9945L28.8744 19.8317L33.0035 27.9945H24.748ZM41.7734 33.9793L31.2736 13.2148C30.851 12.3819 29.9139 11.8443 28.8744 11.8443C27.8376 11.8443 26.8978 12.3819 26.4752 13.2148L21.3356 23.3802H20.9996C17.6501 23.3802 15.1197 22.6903 13.2166 21.7282C13.2271 21.7167 13.2376 21.7121 13.2481 21.7005C16.6395 18.3713 17.9126 13.5424 18.3431 9.53714H20.9996C22.4512 9.53714 23.6245 8.50353 23.6245 7.22997C23.6245 5.95642 22.4512 4.9228 20.9996 4.9228H18.5269C18.4875 3.46929 18.3746 2.49797 18.3589 2.36185C18.2014 1.09752 16.9335 0.197721 15.4636 0.322308C14.0225 0.463046 12.9856 1.60279 13.1405 2.86712C13.1431 2.89711 13.2324 3.69539 13.2718 4.9228H2.62495C1.17598 4.9228 0 5.95642 0 7.22997C0 8.50353 1.17598 9.53714 2.62495 9.53714H13.0749C12.6969 12.698 11.7204 16.2764 9.34743 18.6135C8.23183 17.2154 7.83546 16.018 7.79346 15.8842C7.43385 14.6568 6.019 13.9092 4.61466 14.2207C3.20768 14.5299 2.35195 15.7827 2.70632 17.0193C3.01606 18.1129 3.68542 19.4903 4.74853 20.893C4.08179 21.0084 3.37831 21.073 2.62495 21.073C1.17598 21.073 0 22.1066 0 23.3802C0 24.6537 1.17598 25.6873 2.62495 25.6873C4.8719 25.6873 6.89836 25.3182 8.71745 24.6099C11.2426 26.3033 14.6315 27.6161 19.0387 27.9207L15.9754 33.9793C15.3901 35.1444 15.9833 36.5056 17.3089 37.0248C18.6371 37.5485 20.1885 37.0178 20.7738 35.8527L22.4144 32.6088H35.3344L36.975 35.8527C37.4108 36.7133 38.3689 37.2232 39.3768 37.2232C39.7338 37.2232 40.0961 37.1609 40.4426 37.0248C41.7655 36.5056 42.3614 35.1444 41.7734 33.9793Z"
          fill="#BDBDBD"/>
</svg>
