<svg width="42" height="42" viewBox="0 0 42 42" fill="none" xmlns="http://www.w3.org/2000/svg">
    <path d="M24.748 31.4962L28.8744 22.2093L33.0035 31.4962H24.748ZM41.7734 38.3052L31.2736 14.6811C30.851 13.7335 29.9139 13.1219 28.8744 13.1219C27.8376 13.1219 26.8978 13.7335 26.4752 14.6811L21.3356 26.2464H20.9996C17.6501 26.2464 15.1197 25.4616 13.2166 24.367C13.2271 24.3539 13.2376 24.3486 13.2481 24.3355C16.6395 20.5477 17.9126 15.0538 18.3431 10.497H20.9996C22.4512 10.497 23.6245 9.32102 23.6245 7.87207C23.6245 6.42312 22.4512 5.24717 20.9996 5.24717H18.5269C18.4875 3.59347 18.3746 2.48839 18.3589 2.33352C18.2014 0.895072 16.9335 -0.128641 15.4636 0.0131034C14.0225 0.173223 12.9856 1.46993 13.1405 2.90837C13.1431 2.9425 13.2324 3.85072 13.2718 5.24717H2.62495C1.17598 5.24717 0 6.42312 0 7.87207C0 9.32102 1.17598 10.497 2.62495 10.497H13.0749C12.6969 14.0931 11.7204 18.1643 9.34743 20.8234C8.23183 19.2327 7.83546 17.8703 7.79346 17.7181C7.43385 16.3216 6.019 15.4712 4.61466 15.8255C3.20768 16.1773 2.35195 17.6026 2.70632 19.0095C3.01606 20.2537 3.68542 21.8208 4.74853 23.4168C4.08179 23.548 3.37831 23.6215 2.62495 23.6215C1.17598 23.6215 0 24.7975 0 26.2464C0 27.6954 1.17598 28.8713 2.62495 28.8713C4.8719 28.8713 6.89836 28.4513 8.71745 27.6455C11.2426 29.5722 14.6315 31.0657 19.0387 31.4122L15.9754 38.3052C15.3901 39.6308 15.9833 41.1795 17.3089 41.7701C18.6371 42.366 20.1885 41.7622 20.7738 40.4366L22.4144 36.746H35.3344L36.975 40.4366C37.4108 41.4157 38.3689 41.9958 39.3768 41.9958C39.7338 41.9958 40.0961 41.925 40.4426 41.7701C41.7655 41.1795 42.3614 39.6308 41.7734 38.3052Z"
          fill="white"/>
</svg>
