<svg width="89" height="89" viewBox="0 0 89 89" fill="none" xmlns="http://www.w3.org/2000/svg">
    <rect y="0.164062" width="88.672" height="88.672" rx="44.336" fill="#595959"/>
    <path d="M64.5034 37.329C64.5034 42.6998 62.3141 52.27 58.7531 60.5045C56.9743 64.6177 54.8676 68.3635 52.5471 71.0724C50.2167 73.7929 47.7424 75.3866 45.2303 75.3866C42.7182 75.3866 40.2438 73.7929 37.9134 71.0724C35.593 68.3635 33.4862 64.6177 31.7075 60.5045C28.1465 52.27 25.9572 42.6998 25.9572 37.329C25.9572 26.6848 34.586 18.0559 45.2303 18.0559C55.8745 18.0559 64.5034 26.6848 64.5034 37.329Z"
          fill="#FA5D29" stroke="#0F0F0F"/>
    <path d="M63.3837 37.2492C63.3837 42.62 61.1943 52.1902 57.6333 60.4247C55.8546 64.5378 53.7478 68.2837 51.4274 70.9926C49.097 73.7131 46.6227 75.3068 44.1105 75.3068C41.5984 75.3068 39.1241 73.7131 36.7937 70.9926C34.4732 68.2837 32.3665 64.5378 30.5877 60.4247C27.0267 52.1902 24.8374 42.62 24.8374 37.2492C24.8374 26.6049 33.4663 17.9761 44.1105 17.9761C54.7548 17.9761 63.3837 26.6049 63.3837 37.2492Z"
          stroke="#0F0F0F"/>
    <circle cx="44.1074" cy="37.2062" r="10.7989" stroke="#0F0F0F"/>
    <circle cx="44.2351" cy="37.9086" r="16.4599" fill="#ECD8B1" stroke="#0F0F0F"/>
    <circle cx="44.1075" cy="37.9432" r="7.85138" fill="#0F0F0F" stroke="#0F0F0F"/>
    <circle cx="44.2304" cy="37.8197" r="11.1674" stroke="#0F0F0F"/>
    <circle cx="45.2128" cy="34.8726" r="2.82473" fill="white"/>
    <circle cx="47.6692" cy="37.5741" r="1.59659" fill="white"/>
    <line x1="40.5191" y1="18.4776" x2="46.4142" y2="10.8631" stroke="#0F0F0F"/>
    <circle cx="47.0551" cy="9.4388" r="3.4388" fill="#0F0F0F"/>
    <line x1="60.6423" y1="51.8081" x2="67.9874" y2="58.0356" stroke="#0F0F0F"/>
    <circle cx="69.3708" cy="58.7389" r="3.4388" transform="rotate(92.5462 69.3708 58.7389)" fill="#0F0F0F"/>
    <line x1="69.2345" y1="59.1331" x2="77.4333" y2="46.6073" stroke="#0F0F0F"/>
    <circle cx="78.0208" cy="44.1861" r="5.34599" transform="rotate(-4.53982 78.0208 44.1861)" fill="#0F0F0F"/>
    <ellipse cx="44.719" cy="80.6821" rx="2.21066" ry="5.28102" transform="rotate(90 44.719 80.6821)" fill="black"
             fill-opacity="0.49"/>
    <path d="M44.5 75C41.4624 75 39 74.3284 39 73.5C39 72.6716 41.4624 72 44.5 72C47.5376 72 49.5 72.6716 49.5 73.5C49.5 74.3284 47.5376 75 44.5 75Z"
          fill="black" fill-opacity="0.49"/>
    <line x1="28.8344" y1="54.5478" x2="21.2514" y2="60.4833" stroke="#0F0F0F"/>
    <circle cx="20.283" cy="61.6964" r="3.4388" transform="rotate(-165.798 20.283 61.6964)" fill="#0F0F0F"/>
    <line x1="19.9288" y1="61.5578" x2="13.1877" y2="54.681" stroke="#0F0F0F"/>
    <circle cx="11.8749" cy="53.8536" r="3.4388" transform="rotate(-82.176 11.8749 53.8536)" fill="#0F0F0F"/>
    <line x1="42.7725" y1="15.1342" x2="39.8652" y2="12.1684" stroke="#0F0F0F"/>
    <ellipse cx="39.4404" cy="11.6607" rx="1.47377" ry="1.47377" transform="rotate(-90 39.4404 11.6607)"
             fill="#0F0F0F"/>
</svg>
