<svg width="20" height="20" viewBox="0 0 20 20" fill="none" xmlns="http://www.w3.org/2000/svg">
<path d="M3.81208 17.9386C5.52371 19.2873 7.55966 20.0001 9.69949 20C10.1307 20 10.5676 19.9702 10.9979 19.9113C13.5707 19.5596 15.8566 18.1978 17.4342 16.0766C18.3941 14.7861 19.0395 13.2618 19.3005 11.6687C19.3459 11.3918 19.1645 11.1294 18.8955 11.0826L17.5963 10.8571C17.4669 10.8348 17.3345 10.866 17.2277 10.9442C17.1209 11.0224 17.0487 11.141 17.0269 11.274C16.828 12.4874 16.3359 13.6493 15.6034 14.634C14.4001 16.2518 12.6567 17.2906 10.6942 17.5588C10.3652 17.6038 10.0314 17.6266 9.70219 17.6266C8.07126 17.6266 6.51919 17.0829 5.21349 16.0542C3.64166 14.8157 2.63242 13.0213 2.3718 11.0016C2.11113 8.9819 2.63031 6.97858 3.83356 5.36073C5.24604 3.46176 7.3943 2.37271 9.72755 2.37271C11.367 2.37271 12.9216 2.91486 14.2234 3.94046C14.6549 4.28042 15.0422 4.66019 15.3845 5.07643L12.9514 4.63435C12.8225 4.61083 12.6897 4.6412 12.5822 4.7185C12.4748 4.79586 12.4018 4.91391 12.379 5.04673L12.1499 6.38212C12.1025 6.65869 12.2819 6.92244 12.5505 6.97126L18.3893 8.03218C18.4178 8.0374 18.4465 8.03991 18.4752 8.03991C18.5758 8.03991 18.6748 8.00825 18.7585 7.94804C18.8659 7.87067 18.9389 7.75263 18.9617 7.6198L19.9924 1.6104C20.0399 1.33383 19.8605 1.07007 19.5918 1.02119L18.2943 0.785433C18.0252 0.736411 17.7693 0.921243 17.7219 1.19781L17.2881 3.72688C16.8015 3.10566 16.2426 2.54283 15.6248 2.05607C13.9177 0.710985 11.879 0 9.72913 0C6.6709 0 3.85477 1.42814 2.00276 3.91815C0.425192 6.03944 -0.255454 8.66601 0.0862524 11.3141C0.428025 13.9623 1.75124 16.3149 3.81208 17.9386Z" fill="black"/>
</svg>
